<svg width="50" height="50" viewBox="0 0 50 50" fill="none" xmlns="http://www.w3.org/2000/svg">
<path fill-rule="evenodd" clip-rule="evenodd" d="M34.4859 4.16671C31.4699 4.16667 29.5258 4.52597 27.2972 5.61682C26.4721 6.02069 25.698 6.50707 24.9791 7.07451C24.2879 6.53888 23.5447 6.07483 22.7538 5.68362C20.4819 4.55995 18.4381 4.16667 15.5303 4.16667C7.74257 4.16667 2.08333 10.6193 2.08333 18.9997C2.08333 25.3287 5.61214 31.4423 12.1851 37.3539C15.6352 40.457 20.0402 43.5278 23.195 45.1614L25 46.0961L26.805 45.1614C29.9597 43.5278 34.3648 40.457 37.8149 37.3539C44.3878 31.4423 47.9167 25.3287 47.9167 18.9997C47.9167 10.708 42.2041 4.19867 34.4859 4.16671ZM43.75 18.9997C43.75 23.9581 40.8045 29.0611 35.0286 34.256C31.8795 37.0882 27.8312 39.9186 25 41.4035C22.1688 39.9186 18.1205 37.0882 14.9714 34.256C9.19546 29.0611 6.24999 23.9581 6.24999 18.9997C6.24999 12.8078 10.1742 8.33334 15.5303 8.33334C17.8422 8.33334 19.2669 8.60748 20.9065 9.41843C21.875 9.89744 22.731 10.5299 23.4719 11.3204L25.0049 12.9556L26.5238 11.3074C27.2815 10.4853 28.15 9.83842 29.129 9.35923C30.7206 8.5802 32.0563 8.33334 34.4773 8.33335C39.7671 8.35528 43.75 12.8937 43.75 18.9997Z" fill="#F43F5E"/>
</svg>
