<svg width="50" height="50" viewBox="0 0 50 50" fill="none" xmlns="http://www.w3.org/2000/svg">
<path d="M25 0C11.2 0 0 11.2 0 25C0 38.8 11.2 50 25 50C38.8 50 50 38.8 50 25C50 11.2 38.8 0 25 0ZM43.65 17.8L36.7 20.675C35.425 17.275 32.75 14.575 29.325 13.325L32.2 6.375C37.45 8.375 41.625 12.55 43.65 17.8ZM25 32.5C20.85 32.5 17.5 29.15 17.5 25C17.5 20.85 20.85 17.5 25 17.5C29.15 17.5 32.5 20.85 32.5 25C32.5 29.15 29.15 32.5 25 32.5ZM17.825 6.35L20.75 13.3C17.3 14.55 14.575 17.275 13.3 20.725L6.35 17.825C8.375 12.55 12.55 8.375 17.825 6.35ZM6.35 32.175L13.3 29.3C14.575 32.75 17.275 35.45 20.725 36.7L17.8 43.65C12.55 41.625 8.375 37.45 6.35 32.175ZM32.2 43.65L29.325 36.7C32.75 35.425 35.45 32.725 36.7 29.275L43.65 32.2C41.625 37.45 37.45 41.625 32.2 43.65Z" fill="#F43F5E"/>
</svg>
